<?xml version="1.0" encoding="UTF-8" standalone="no"?>
<svg
   xmlns:dc="http://purl.org/dc/elements/1.1/"
   xmlns:cc="http://creativecommons.org/ns#"
   xmlns:rdf="http://www.w3.org/1999/02/22-rdf-syntax-ns#"
   xmlns:svg="http://www.w3.org/2000/svg"
   xmlns="http://www.w3.org/2000/svg"
   xmlns:sodipodi="http://sodipodi.sourceforge.net/DTD/sodipodi-0.dtd"
   xmlns:inkscape="http://www.inkscape.org/namespaces/inkscape"
   version="1.1"
   viewBox="0 -256 32.000001 32.000001"
   id="svg6"
   sodipodi:docname="age.svg"
   inkscape:version="0.92.3 (2405546, 2018-03-11)"
   width="32"
   height="32">
  <metadata
     id="metadata12">
    <rdf:RDF>
      <cc:Work
         rdf:about="">
        <dc:format>image/svg+xml</dc:format>
        <dc:type
           rdf:resource="http://purl.org/dc/dcmitype/StillImage" />
        <dc:title />
      </cc:Work>
    </rdf:RDF>
  </metadata>
  <defs
     id="defs10" />
  <sodipodi:namedview
     pagecolor="#ffffff"
     bordercolor="#666666"
     borderopacity="1"
     objecttolerance="10"
     gridtolerance="10"
     guidetolerance="10"
     inkscape:pageopacity="0"
     inkscape:pageshadow="2"
     inkscape:window-width="1920"
     inkscape:window-height="1017"
     id="namedview8"
     showgrid="false"
     inkscape:zoom="9.1849359"
     inkscape:cx="-17.66594"
     inkscape:cy="14.505253"
     inkscape:window-x="-8"
     inkscape:window-y="-8"
     inkscape:window-maximized="1"
     inkscape:current-layer="layer2"
     fit-margin-top="0"
     fit-margin-left="0"
     fit-margin-right="0"
     fit-margin-bottom="0" />
  <g
     inkscape:groupmode="layer"
     id="layer1"
     inkscape:label="Background"
     transform="translate(-2.1723094,20.664459)"
     style="display:none">
    <rect
       style="color:#000000;clip-rule:nonzero;display:inline;overflow:visible;visibility:visible;opacity:1;isolation:auto;mix-blend-mode:normal;color-interpolation:sRGB;color-interpolation-filters:linearRGB;solid-color:#000000;solid-opacity:1;fill:#800080;fill-opacity:1;fill-rule:nonzero;stroke:none;stroke-width:9.82172871;stroke-linecap:butt;stroke-linejoin:round;stroke-miterlimit:4;stroke-dasharray:none;stroke-dashoffset:0;stroke-opacity:1;paint-order:normal;color-rendering:auto;image-rendering:auto;shape-rendering:auto;text-rendering:auto;enable-background:accumulate"
       id="rect846"
       width="32"
       height="32"
       x="2.1723094"
       y="-276.66446" />
  </g>
  <g
     inkscape:groupmode="layer"
     id="layer2"
     inkscape:label="Icon"
     transform="translate(-2.1723094,20.664459)">
    <path
       d="M 10,3 C 9.449,3 9,3.449 9,4 v 3 c 0,0.551 0.449,1 1,1 0.551,0 1,-0.449 1,-1 V 4 C 11,3.449 10.551,3 10,3 Z m 12,0 c -0.551,0 -1,0.449 -1,1 v 3 c 0,0.551 0.449,1 1,1 0.551,0 1,-0.449 1,-1 V 4 C 23,3.449 22.551,3 22,3 Z M 6,5 C 4.344,5 3,6.344 3,8 v 18 c 0,1.656 1.344,3 3,3 h 20 c 1.656,0 3,-1.344 3,-3 V 8 C 29,6.344 27.656,5 26,5 H 24 V 7 C 24,8.103 23.103,9 22,9 20.896,9 20,8.103 20,7 V 5 H 12 V 7 C 12,8.103 11.102999,9 10,9 8.897,9 8,8.103 8,7 V 5 Z m -1,7 h 22 v 14 c 0,0.551 -0.449,1 -1,1 H 6 C 5.449,27 5,26.551 5,26 Z"
       transform="translate(2.1723094,-276.66446)"
       id="path2"
       inkscape:connector-curvature="0"
       sodipodi:nodetypes="sssssssssssssssssssssscsssccssscsccssssc"
       style="fill:#ffffff" />
  </g>
</svg>
