<?xml version="1.0" encoding="UTF-8" standalone="no"?>
<svg
   width="190"
   height="118"
   viewBox="0 0 50.270832 31.220834"
   version="1.1"
   id="svg8"
   inkscape:version="1.1.1 (3bf5ae0d25, 2021-09-20)"
   sodipodi:docname="android.svg"
   inkscape:export-filename="E:\Users\Bastien\Downloads\image.png"
   inkscape:export-xdpi="96"
   inkscape:export-ydpi="96"
   xmlns:inkscape="http://www.inkscape.org/namespaces/inkscape"
   xmlns:sodipodi="http://sodipodi.sourceforge.net/DTD/sodipodi-0.dtd"
   xmlns="http://www.w3.org/2000/svg"
   xmlns:svg="http://www.w3.org/2000/svg"
   xmlns:rdf="http://www.w3.org/1999/02/22-rdf-syntax-ns#"
   xmlns:cc="http://creativecommons.org/ns#"
   xmlns:dc="http://purl.org/dc/elements/1.1/">
  <defs
     id="defs2">
    <filter
       style="color-interpolation-filters:sRGB;"
       inkscape:label="Drop Shadow"
       id="filter1208">
      <feFlood
         flood-opacity="0.635294"
         flood-color="rgb(0,0,0)"
         result="flood"
         id="feFlood1198" />
      <feComposite
         in="flood"
         in2="SourceGraphic"
         operator="in"
         result="composite1"
         id="feComposite1200" />
      <feGaussianBlur
         in="composite1"
         stdDeviation="0.1"
         result="blur"
         id="feGaussianBlur1202" />
      <feOffset
         dx="0.3"
         dy="0.3"
         result="offset"
         id="feOffset1204" />
      <feComposite
         in="SourceGraphic"
         in2="offset"
         operator="over"
         result="composite2"
         id="feComposite1206" />
    </filter>
  </defs>
  <sodipodi:namedview
     id="base"
     pagecolor="#ffffff"
     bordercolor="#666666"
     borderopacity="1.0"
     inkscape:pageopacity="0.0"
     inkscape:pageshadow="2"
     inkscape:zoom="1.1777872"
     inkscape:cx="-133.72535"
     inkscape:cy="-177.02689"
     inkscape:document-units="px"
     inkscape:current-layer="layer2"
     showgrid="false"
     units="px"
     inkscape:window-width="2560"
     inkscape:window-height="1369"
     inkscape:window-x="-8"
     inkscape:window-y="-8"
     inkscape:window-maximized="1"
     fit-margin-top="0"
     fit-margin-left="0"
     fit-margin-right="0"
     fit-margin-bottom="0"
     objecttolerance="1"
     gridtolerance="1"
     guidetolerance="1"
     inkscape:document-rotation="0"
     showguides="false"
     inkscape:pagecheckerboard="0" />
  <metadata
     id="metadata5">
    <rdf:RDF>
      <cc:Work
         rdf:about="">
        <dc:format>image/svg+xml</dc:format>
        <dc:type
           rdf:resource="http://purl.org/dc/dcmitype/StillImage" />
      </cc:Work>
    </rdf:RDF>
  </metadata>
  <g
     inkscape:groupmode="layer"
     id="layer2"
     inkscape:label="background"
     style="display:inline">
    <rect
       style="fill:#9be47b;fill-opacity:1;stroke:none;stroke-width:0.262049"
       id="rect2402"
       width="50.270832"
       height="31.220833"
       x="-2.7755576e-17"
       y="4.2792453e-07"
       rx="0"
       ry="0" />
    <path
       id="rect1179"
       style="fill:#86db55;stroke-width:0.262049;fill-opacity:1"
       d="M 0,27.406621 50.270832,4.2792453e-7 V 31.220833 H 0 Z"
       sodipodi:nodetypes="ccccc" />
  </g>
  <g
     inkscape:label="Calque 1"
     inkscape:groupmode="layer"
     id="layer1"
     transform="translate(-119.8202,-121.81637)"
     style="display:inline;opacity:1">
    <path
       id="path2-8"
       style="fill:#ffffff;stroke-width:0.143916"
       d="m 77.181641,46.779297 v 2.851562 12.15625 16.31836 c 0,0.07645 0.0011,0.153134 0.0039,0.228515 0.0057,0.150763 0.01627,0.299349 0.0332,0.445313 0.01693,0.145964 0.04039,0.289203 0.06836,0.429687 0.02797,0.140485 0.0608,0.277784 0.09961,0.41211 0.03891,0.134326 0.08325,0.26509 0.132812,0.392578 0.197956,0.510407 0.481373,0.96239 0.841797,1.335937 0.04469,0.04632 0.08964,0.09288 0.136719,0.136719 3.39e-4,3.16e-4 0.0016,-3.15e-4 0.002,0 0.04708,0.0438 0.09509,0.08767 0.144531,0.128906 3.75e-4,3.13e-4 0.0016,-3.12e-4 0.002,0 0.198937,0.165796 0.416214,0.310697 0.652344,0.431641 5.1e-4,2.61e-4 0.0014,-2.61e-4 0.002,0 0.178048,0.09108 0.366069,0.169521 0.564453,0.232422 0.06474,0.02053 0.130407,0.03928 0.197266,0.05664 0.0012,3.19e-4 0.0027,-3.19e-4 0.0039,0 0.06691,0.01731 0.134126,0.03477 0.203125,0.04883 0.0013,2.57e-4 0.0027,-2.56e-4 0.0039,0 0.06904,0.014 0.137873,0.02644 0.208984,0.03711 0.0019,2.9e-4 0.0039,-2.88e-4 0.0059,0 0.07056,0.01049 0.142271,0.02021 0.214844,0.02734 0.0019,1.94e-4 0.0039,-1.92e-4 0.0059,0 0.07266,0.007 0.146056,0.01397 0.220704,0.01758 0.002,9.8e-5 0.0039,-9.5e-5 0.0059,0 0.07475,0.0035 0.151793,0.0059 0.228515,0.0059 h 0.0039 2.919922 v 1.234375 8.873047 c 0,0.362309 0.05555,0.713447 0.15625,1.048828 0.04027,0.134153 0.08796,0.265919 0.142578,0.394532 0.355077,0.835981 1.001256,1.548611 1.802734,2.039062 4.66e-4,2.85e-4 0.0015,-2.85e-4 0.002,0 0.122852,0.07512 0.249325,0.144599 0.378906,0.208984 5.16e-4,2.56e-4 0.0014,-2.55e-4 0.002,0 0.06453,0.03204 0.129298,0.06451 0.195312,0.09375 5.38e-4,2.39e-4 0.0014,-2.38e-4 0.002,0 0.13258,0.05868 0.268445,0.111304 0.40625,0.158204 5.79e-4,1.97e-4 0.0014,-1.97e-4 0.002,0 0.06861,0.02332 0.137313,0.04613 0.207032,0.06641 5.97e-4,1.74e-4 0.0014,-1.74e-4 0.002,0 0.06972,0.02024 0.14023,0.03953 0.210937,0.05664 6.12e-4,1.48e-4 0.0013,-1.47e-4 0.002,0 0.07071,0.01708 0.141322,0.03301 0.212891,0.04687 0.0012,2.42e-4 0.0027,-2.4e-4 0.0039,0 0.07096,0.01368 0.143164,0.02667 0.214844,0.03711 6.4e-4,9.3e-5 0.0013,-9.3e-5 0.002,0 0.07231,0.0105 0.143873,0.02024 0.216797,0.02734 0.0013,1.26e-4 0.0026,-1.24e-4 0.0039,0 0.07228,0.007 0.144033,0.01206 0.216797,0.01563 0.07617,0.0038 0.151942,0.0059 0.228516,0.0059 0.520001,-4.49e-4 1.030513,-0.09145 1.513672,-0.255859 0.27725,-0.09419 0.544824,-0.213019 0.798828,-0.353516 0.06389,-0.03533 0.127351,-0.06939 0.189453,-0.107422 0.184309,-0.112912 0.361058,-0.239833 0.527344,-0.375 0.111219,-0.09036 0.21645,-0.185739 0.318359,-0.285156 0.254883,-0.248802 0.480443,-0.522458 0.666016,-0.820313 0.07413,-0.118983 0.141813,-0.241608 0.203125,-0.367187 0.06131,-0.125579 0.116572,-0.255249 0.164062,-0.386719 0.07124,-0.197206 0.126751,-0.400892 0.164063,-0.609375 0.03737,-0.208483 0.05664,-0.421286 0.05664,-0.638672 v -8.873047 -1.234375 h 6.906249 v 1.234375 8.873047 c 0,0.144924 0.009,0.288545 0.0254,0.429688 0.0168,0.141142 0.0435,0.279357 0.0762,0.416015 0.0327,0.136659 0.0716,0.270874 0.11914,0.402344 0.0475,0.13147 0.10275,0.26114 0.16407,0.386719 0.0307,0.06279 0.0637,0.124362 0.0976,0.185547 0.16962,0.305923 0.37921,0.590403 0.6211,0.849609 0.0487,0.05219 0.0991,0.102319 0.15039,0.152344 0.0509,0.04971 0.10293,0.099 0.15625,0.146484 0.15952,0.142087 0.32914,0.275867 0.50781,0.396484 0.0597,0.0403 0.12006,0.07946 0.18164,0.117188 4.7e-4,2.87e-4 0.001,-2.86e-4 0.002,0 0.0616,0.03771 0.12414,0.07237 0.1875,0.107422 0.25401,0.140497 0.52158,0.259325 0.79883,0.353516 0.068,0.02309 0.136,0.04631 0.20508,0.06641 0.001,3.48e-4 0.003,-3.47e-4 0.004,0 0.0691,0.02004 0.13892,0.03968 0.20898,0.05664 0.001,2.97e-4 0.003,-2.95e-4 0.004,0 0.0701,0.0169 0.14002,0.03314 0.21093,0.04687 0.001,2.44e-4 0.003,-2.42e-4 0.004,0 0.0709,0.01368 0.14125,0.02668 0.21289,0.03711 0.001,1.87e-4 0.003,-1.86e-4 0.004,0 0.0717,0.01037 0.14452,0.0203 0.21679,0.02734 0.001,1.26e-4 0.003,-1.24e-4 0.004,0 0.0723,0.007 0.14404,0.01206 0.2168,0.01563 0.0754,0.0038 0.15272,0.0059 0.22851,0.0059 0.59493,-7.7e-4 1.18028,-0.118309 1.72266,-0.330078 5.7e-4,-2.22e-4 0.001,2.22e-4 0.002,0 0.20347,-0.07953 0.39995,-0.174387 0.58985,-0.279297 5e-4,-2.78e-4 0.001,2.77e-4 0.002,0 1.33217,-0.736573 2.28906,-2.068714 2.28906,-3.589844 v -8.873047 -1.234375 h 2.91992 c 0.31616,0 0.6162,-0.03013 0.89844,-0.08789 0.13924,-0.02837 0.27364,-0.06404 0.4043,-0.105469 0.39622,-0.125624 0.75266,-0.30953 1.0664,-0.542969 0.15676,-0.116594 0.3023,-0.24671 0.4375,-0.386719 0.13536,-0.140288 0.26004,-0.289659 0.37305,-0.451171 0.15032,-0.214839 0.28125,-0.447685 0.39063,-0.695313 0.0822,-0.185721 0.15257,-0.380542 0.21093,-0.582031 0.0388,-0.134326 0.0716,-0.271625 0.0996,-0.41211 0.0701,-0.351212 0.10547,-0.721246 0.10547,-1.103515 v -16.31836 -12.15625 -2.851562 z"
       transform="matrix(0.26458333,0,0,0.26458333,119.8202,121.81637)"
       sodipodi:nodetypes="cccssssccsscscscsscscscscscscccsscssscssssscscsssssscccscccssscsccccssccccssssscssscscscscssccscscsccscsccscccscccc" />
    <path
       style="fill:#ffffff;stroke-width:0.0380779"
       d="m 148.04219,129.87627 0.21262,-0.31192 0.21294,-0.30829 0.47429,-0.69302 c 0.0595,-0.0858 0.0347,-0.20044 -0.0526,-0.2568 -0.0865,-0.0576 -0.20623,-0.0335 -0.26288,0.0518 l -0.7241,1.05491 -0.2178,0.31772 c -0.68814,-0.26016 -1.45489,-0.40516 -2.26487,-0.40516 -0.80818,0 -1.57643,0.14534 -2.26459,0.40516 l -0.21657,-0.31742 -0.21415,-0.31163 -0.50873,-0.74298 c -0.0588,-0.0855 -0.17699,-0.10809 -0.26472,-0.0518 -0.0868,0.0566 -0.11098,0.1712 -0.053,0.2568 l 0.47399,0.69333 0.21294,0.30857 0.21386,0.31104 c -1.61574,0.73262 -2.70904,2.18444 -2.70904,3.70757 h 10.66033 c 0,-1.52313 -1.093,-2.97495 -2.70782,-3.70789 z m -4.90687,2.22893 c -0.31652,0 -0.5715,-0.24886 -0.5715,-0.55624 0,-0.30737 0.25498,-0.55502 0.5715,-0.55502 0.31558,0 0.57116,0.24765 0.57116,0.55502 0,0.30738 -0.25528,0.55624 -0.57116,0.55624 z m 4.56936,0 c -0.31621,0 -0.57178,-0.24886 -0.57178,-0.55624 0,-0.30737 0.25557,-0.55502 0.57178,-0.55502 0.31557,0 0.57115,0.24765 0.57115,0.55502 0,0.30738 -0.25558,0.55624 -0.57115,0.55624 z"
       id="path6-8" />
    <g
       id="g932"
       transform="translate(-0.03184)"
       style="fill:#ffffff">
      <path
         style="fill:#ffffff;stroke:none;stroke-width:0.19039;stroke-miterlimit:4;stroke-dasharray:none;stroke-opacity:1"
         d="m 138.37524,134.86139 c -0.63086,0 -1.2185,0.49777 -1.2185,1.11097 v 4.75671 c 0,0.61351 0.58764,1.11096 1.2185,1.11096 0.63057,0 1.2185,-0.49745 1.2185,-1.11096 v -4.7564 c 0,-0.61351 -0.58793,-1.11128 -1.2185,-1.11128 z"
         id="path4-6" />
      <path
         style="fill:#ffffff;stroke:none;stroke-width:0.19039;stroke-miterlimit:4;stroke-dasharray:none;stroke-opacity:1"
         d="m 152.52784,134.86139 c -0.63086,0 -1.2185,0.49777 -1.2185,1.11097 v 4.75671 c 0,0.61351 0.58764,1.11096 1.2185,1.11096 0.63057,0 1.2185,-0.49745 1.2185,-1.11096 v -4.7564 c 0,-0.61351 -0.58793,-1.11128 -1.2185,-1.11128 z"
         id="path928" />
    </g>
  </g>
</svg>
