<?xml version="1.0" encoding="utf-8"?>
<!-- Svg Vector Icons : http://www.onlinewebfonts.com/icon -->
<!DOCTYPE svg PUBLIC "-//W3C//DTD SVG 1.1//EN" "http://www.w3.org/Graphics/SVG/1.1/DTD/svg11.dtd">
<svg version="1.1" xmlns="http://www.w3.org/2000/svg" xmlns:xlink="http://www.w3.org/1999/xlink" x="0px" y="0px" viewBox="0 0 256 256" enable-background="new 0 0 256 256" xml:space="preserve">
<metadata> Svg Vector Icons : http://www.onlinewebfonts.com/icon </metadata>
<g><g><path fill="#000000" d="M189,158.2c-12.3,0-23.4,5.1-31.3,13.2l-49.9-22.8c2-5,3-10.4,3-16c0-6.3-1.3-12.3-3.8-17.7l51.9-29c7.8,7.4,18.4,11.9,30.1,11.9c24.2,0,43.9-19.7,43.9-43.9c0-24.2-19.7-43.9-43.9-43.9s-43.9,19.7-43.9,43.9c0,6.3,1.3,12.3,3.8,17.7l-51.9,29C89.2,93.3,78.6,88.7,67,88.7c-24.2,0-43.9,19.7-43.9,43.9c0,24.2,19.7,43.9,43.9,43.9c12.3,0,23.4-5.1,31.3-13.2l49.9,22.8c-1.9,5-3,10.4-3,16c0,24.2,19.7,43.9,43.9,43.9s43.9-19.7,43.9-43.9C232.9,177.9,213.2,158.2,189,158.2z M189,27.3c14.6,0,26.6,11.9,26.6,26.6S203.7,80.4,189,80.4c-14.6,0-26.6-11.9-26.6-26.6S174.4,27.3,189,27.3z M67,159.2c-14.6,0-26.6-11.9-26.6-26.6c0-14.6,11.9-26.6,26.6-26.6s26.6,11.9,26.6,26.6C93.5,147.3,81.6,159.2,67,159.2z M189,228.7c-14.6,0-26.6-11.9-26.6-26.6c0-14.6,11.9-26.6,26.6-26.6c14.6,0,26.6,11.9,26.6,26.6C215.6,216.8,203.7,228.7,189,228.7z"/></g></g>
</svg>