<?xml version="1.0" encoding="UTF-8" standalone="no"?>
<svg
   xmlns:dc="http://purl.org/dc/elements/1.1/"
   xmlns:cc="http://creativecommons.org/ns#"
   xmlns:rdf="http://www.w3.org/1999/02/22-rdf-syntax-ns#"
   xmlns:svg="http://www.w3.org/2000/svg"
   xmlns="http://www.w3.org/2000/svg"
   xmlns:sodipodi="http://sodipodi.sourceforge.net/DTD/sodipodi-0.dtd"
   xmlns:inkscape="http://www.inkscape.org/namespaces/inkscape"
   version="1.1"
   viewBox="0 -256 32.000001 32.000001"
   id="svg6"
   sodipodi:docname="competences.svg"
   inkscape:version="0.92.3 (2405546, 2018-03-11)"
   width="32"
   height="32">
  <metadata
     id="metadata12">
    <rdf:RDF>
      <cc:Work
         rdf:about="">
        <dc:format>image/svg+xml</dc:format>
        <dc:type
           rdf:resource="http://purl.org/dc/dcmitype/StillImage" />
        <dc:title />
      </cc:Work>
    </rdf:RDF>
  </metadata>
  <defs
     id="defs10" />
  <sodipodi:namedview
     pagecolor="#ffffff"
     bordercolor="#666666"
     borderopacity="1"
     objecttolerance="10"
     gridtolerance="10"
     guidetolerance="10"
     inkscape:pageopacity="0"
     inkscape:pageshadow="2"
     inkscape:window-width="1920"
     inkscape:window-height="1017"
     id="namedview8"
     showgrid="false"
     inkscape:zoom="3.3485188"
     inkscape:cx="-15.540451"
     inkscape:cy="46.908035"
     inkscape:window-x="-8"
     inkscape:window-y="-8"
     inkscape:window-maximized="1"
     inkscape:current-layer="layer2"
     fit-margin-top="0"
     fit-margin-left="0"
     fit-margin-right="0"
     fit-margin-bottom="0" />
  <g
     inkscape:groupmode="layer"
     id="layer1"
     inkscape:label="Background"
     transform="translate(-2.1723094,20.664459)"
     style="display:none">
    <rect
       style="color:#000000;clip-rule:nonzero;display:inline;overflow:visible;visibility:visible;opacity:1;isolation:auto;mix-blend-mode:normal;color-interpolation:sRGB;color-interpolation-filters:linearRGB;solid-color:#000000;solid-opacity:1;fill:#800080;fill-opacity:1;fill-rule:nonzero;stroke:none;stroke-width:9.82172871;stroke-linecap:butt;stroke-linejoin:round;stroke-miterlimit:4;stroke-dasharray:none;stroke-dashoffset:0;stroke-opacity:1;paint-order:normal;color-rendering:auto;image-rendering:auto;shape-rendering:auto;text-rendering:auto;enable-background:accumulate"
       id="rect846"
       width="32"
       height="32"
       x="2.1723094"
       y="-276.66446" />
  </g>
  <g
     inkscape:groupmode="layer"
     id="layer2"
     inkscape:label="Icon"
     transform="translate(-2.1723094,20.664459)">
    <path
       inkscape:connector-curvature="0"
       d="m 9.4811076,-264.38971 15.7434404,15.65067 c 1.199413,1.19267 3.144699,1.19267 4.344123,0 1.199137,-1.19214 1.199137,-3.12583 0,-4.31877 l -15.743175,-15.65068 c 0.191987,-1.48525 -0.280725,-3.03899 -1.428089,-4.17963 -1.37712,-1.3693 -3.352876,-1.77539 -5.0889019,-1.22666 1.0117437,1.00501 1.793741,1.80104 2.039932,2.04534 0.8796139,0.87474 1.0880469,2.08522 0.4659646,2.70354 l -0.9934107,0.98773 c -0.6220818,0.61833 -1.8398388,0.41122 -2.7194531,-0.46325 -0.24565,-0.24458 -1.0462455,-1.02171 -2.057724,-2.02807 -0.551975,1.72632 -0.1434072,3.6902 1.2339257,5.05951 1.1473848,1.1409 2.7097561,1.61091 4.203368,1.42027 z m 18.7900554,14.36085 c -0.571666,0.56778 -1.497272,0.56778 -2.068938,0 -0.571008,-0.56794 -0.571008,-1.48873 0,-2.05651 0.571666,-0.56795 1.497272,-0.56795 2.068938,0 0.571019,0.5673 0.571019,1.48841 0,2.05651 z"
       id="path3926-6-2"
       style="fill:#ffffff;fill-opacity:1;stroke-width:1.01929355"
       sodipodi:nodetypes="ccccccccccccccccccc" />
    <path
       inkscape:connector-curvature="0"
       d="m 8.8552088,-247.08947 7.7970532,-7.75176 -1.017712,-1.01214 -2.625441,-2.61015 -1.017974,-1.01185 -7.7970426,7.75175 c -0.7549987,0.74998 -0.3230693,2.39556 0.9642044,3.67488 1.2870315,1.27988 2.941883,1.70941 3.6968716,0.9592 z"
       id="path3928-9-3-7"
       style="fill:#ffffff;fill-opacity:1;stroke-width:1.13571024"
       sodipodi:nodetypes="ccccccccc" />
    <polygon
       points="57.351,37.373 64.886,44.862 74.778,35.026 83.002,32.835 98.928,10.264 92.153,3.526 69.45,19.361 67.244,27.537 "
       id="polygon3930-5-5-2"
       transform="matrix(0.27475001,0,0,0.27475001,4.3955402,-275.2806)"
       style="fill:#ffffff;fill-opacity:1;stroke-width:0.67510724" />
  </g>
</svg>
