<?xml version="1.0" encoding="UTF-8" standalone="no"?>
<svg
   xmlns:dc="http://purl.org/dc/elements/1.1/"
   xmlns:cc="http://creativecommons.org/ns#"
   xmlns:rdf="http://www.w3.org/1999/02/22-rdf-syntax-ns#"
   xmlns:svg="http://www.w3.org/2000/svg"
   xmlns="http://www.w3.org/2000/svg"
   xmlns:sodipodi="http://sodipodi.sourceforge.net/DTD/sodipodi-0.dtd"
   xmlns:inkscape="http://www.inkscape.org/namespaces/inkscape"
   version="1.1"
   viewBox="0 -256 32.000001 32.000001"
   id="svg6"
   sodipodi:docname="contact.svg"
   inkscape:version="0.92.3 (2405546, 2018-03-11)"
   width="32"
   height="32">
  <metadata
     id="metadata12">
    <rdf:RDF>
      <cc:Work
         rdf:about="">
        <dc:format>image/svg+xml</dc:format>
        <dc:type
           rdf:resource="http://purl.org/dc/dcmitype/StillImage" />
        <dc:title />
      </cc:Work>
    </rdf:RDF>
  </metadata>
  <defs
     id="defs10" />
  <sodipodi:namedview
     pagecolor="#ffffff"
     bordercolor="#666666"
     borderopacity="1"
     objecttolerance="10"
     gridtolerance="10"
     guidetolerance="10"
     inkscape:pageopacity="0"
     inkscape:pageshadow="2"
     inkscape:window-width="1920"
     inkscape:window-height="1017"
     id="namedview8"
     showgrid="false"
     inkscape:zoom="9.9768352"
     inkscape:cx="22.634851"
     inkscape:cy="16.948051"
     inkscape:window-x="-8"
     inkscape:window-y="-8"
     inkscape:window-maximized="1"
     inkscape:current-layer="layer2"
     fit-margin-top="0"
     fit-margin-left="0"
     fit-margin-right="0"
     fit-margin-bottom="0" />
  <g
     inkscape:groupmode="layer"
     id="layer1"
     inkscape:label="Background"
     transform="translate(-2.1723094,20.664459)"
     style="display:none">
    <rect
       style="color:#000000;clip-rule:nonzero;display:inline;overflow:visible;visibility:visible;opacity:1;isolation:auto;mix-blend-mode:normal;color-interpolation:sRGB;color-interpolation-filters:linearRGB;solid-color:#000000;solid-opacity:1;fill:#800080;fill-opacity:1;fill-rule:nonzero;stroke:none;stroke-width:9.82172871;stroke-linecap:butt;stroke-linejoin:round;stroke-miterlimit:4;stroke-dasharray:none;stroke-dashoffset:0;stroke-opacity:1;paint-order:normal;color-rendering:auto;image-rendering:auto;shape-rendering:auto;text-rendering:auto;enable-background:accumulate"
       id="rect846"
       width="32"
       height="32"
       x="2.1723094"
       y="-276.66446" />
  </g>
  <g
     inkscape:groupmode="layer"
     id="layer2"
     inkscape:label="Icon"
     transform="translate(-2.1723094,20.664459)">
    <path
       style="color:#000000;clip-rule:nonzero;display:inline;overflow:visible;visibility:visible;opacity:1;isolation:auto;mix-blend-mode:normal;color-interpolation:sRGB;color-interpolation-filters:linearRGB;solid-color:#000000;solid-opacity:1;fill:#ffffff;fill-opacity:1;fill-rule:nonzero;stroke:none;stroke-width:2;stroke-linecap:round;stroke-linejoin:round;stroke-miterlimit:4;stroke-dasharray:none;stroke-dashoffset:0;stroke-opacity:1;paint-order:stroke fill markers;color-rendering:auto;image-rendering:auto;shape-rendering:auto;text-rendering:auto;enable-background:accumulate"
       d="m 7.0160596,-270.32925 c -1.1910119,0 -2.1484375,0.95938 -2.1484375,2.15039 v 13.94141 0.63672 6.21484 c 0,0.6131 2.2748287,-1.74303 4.5175781,-4.06445 H 29.32856 c 1.191012,0 2.148437,-0.95938 2.148437,-2.15039 v -14.57813 c 0,-1.19101 -0.957425,-2.15039 -2.148437,-2.15039 z m 4.9589844,6.66992 a 2.1542277,2.1542277 0 0 1 2.154297,2.1543 2.1542277,2.1542277 0 0 1 -2.154297,2.1543 2.1542277,2.1542277 0 0 1 -2.1542969,-2.1543 2.1542277,2.1542277 0 0 1 2.1542969,-2.1543 z m 6.197266,0 a 2.1542277,2.1542277 0 0 1 2.154297,2.1543 2.1542277,2.1542277 0 0 1 -2.154297,2.1543 2.1542277,2.1542277 0 0 1 -2.154297,-2.1543 2.1542277,2.1542277 0 0 1 2.154297,-2.1543 z m 6.197266,0 a 2.1542277,2.1542277 0 0 1 2.154297,2.1543 2.1542277,2.1542277 0 0 1 -2.154297,2.1543 2.1542277,2.1542277 0 0 1 -2.154297,-2.1543 2.1542277,2.1542277 0 0 1 2.154297,-2.1543 z"
       id="rect815"
       inkscape:connector-curvature="0" />
  </g>
</svg>
