<?xml version="1.0" encoding="UTF-8" standalone="no"?>
<svg
   xmlns:dc="http://purl.org/dc/elements/1.1/"
   xmlns:cc="http://creativecommons.org/ns#"
   xmlns:rdf="http://www.w3.org/1999/02/22-rdf-syntax-ns#"
   xmlns:svg="http://www.w3.org/2000/svg"
   xmlns="http://www.w3.org/2000/svg"
   xmlns:sodipodi="http://sodipodi.sourceforge.net/DTD/sodipodi-0.dtd"
   xmlns:inkscape="http://www.inkscape.org/namespaces/inkscape"
   version="1.1"
   viewBox="0 -256 32.000001 32.000001"
   id="svg6"
   sodipodi:docname="experience.svg"
   inkscape:version="0.92.3 (2405546, 2018-03-11)"
   width="32"
   height="32">
  <metadata
     id="metadata12">
    <rdf:RDF>
      <cc:Work
         rdf:about="">
        <dc:format>image/svg+xml</dc:format>
        <dc:type
           rdf:resource="http://purl.org/dc/dcmitype/StillImage" />
        <dc:title />
      </cc:Work>
    </rdf:RDF>
  </metadata>
  <defs
     id="defs10" />
  <sodipodi:namedview
     pagecolor="#ffffff"
     bordercolor="#666666"
     borderopacity="1"
     objecttolerance="10"
     gridtolerance="10"
     guidetolerance="10"
     inkscape:pageopacity="0"
     inkscape:pageshadow="2"
     inkscape:window-width="1920"
     inkscape:window-height="1017"
     id="namedview8"
     showgrid="false"
     inkscape:zoom="5.37007"
     inkscape:cx="33.473134"
     inkscape:cy="21.851467"
     inkscape:window-x="-8"
     inkscape:window-y="-8"
     inkscape:window-maximized="1"
     inkscape:current-layer="layer2"
     fit-margin-top="0"
     fit-margin-left="0"
     fit-margin-right="0"
     fit-margin-bottom="0" />
  <g
     inkscape:groupmode="layer"
     id="layer1"
     inkscape:label="Background"
     transform="translate(-2.1723094,20.664459)"
     style="display:none">
    <rect
       style="color:#000000;clip-rule:nonzero;display:inline;overflow:visible;visibility:visible;opacity:1;isolation:auto;mix-blend-mode:normal;color-interpolation:sRGB;color-interpolation-filters:linearRGB;solid-color:#000000;solid-opacity:1;fill:#800080;fill-opacity:1;fill-rule:nonzero;stroke:none;stroke-width:9.82172871;stroke-linecap:butt;stroke-linejoin:round;stroke-miterlimit:4;stroke-dasharray:none;stroke-dashoffset:0;stroke-opacity:1;paint-order:normal;color-rendering:auto;image-rendering:auto;shape-rendering:auto;text-rendering:auto;enable-background:accumulate"
       id="rect846"
       width="32"
       height="32"
       x="2.1723094"
       y="-276.66446" />
  </g>
  <g
     inkscape:groupmode="layer"
     id="layer2"
     inkscape:label="Icon"
     transform="translate(-2.1723094,20.664459)">
    <path
       style="display:inline;fill:#ffffff;fill-opacity:1;stroke-width:0.04329043"
       d="m 14.152778,-271.37885 c -1.274824,0 -2.281249,1.00446 -2.28125,2.27929 v 1.56836 l 1.632813,0.008 v -0.96875 c 0,-0.87497 0.714071,-1.59375 1.59375,-1.59375 h 6.148437 c 0.874972,0 1.59375,0.71409 1.59375,1.59375 v 0.96875 h 1.632813 v -1.5664 c 0,-1.27482 -0.986896,-2.28906 -2.261719,-2.28906 z m -5.5371087,5.19336 c -1.415228,0 -2.554688,1.13946 -2.554688,2.55469 v 2.3819 h 4.1542967 v -0.90339 c 0,-0.54679 0.375669,-0.98633 0.84375,-0.98633 h 1.744141 c 0.468081,0 0.84375,0.43954 0.84375,0.98633 v 0.90339 H 22.6977 v -0.90339 c 0,-0.54679 0.375669,-0.98633 0.84375,-0.98633 h 1.744141 c 0.46808,0 0.843749,0.43954 0.84375,0.98633 v 0.90339 h 4.154296 v -2.3819 c 0,-1.41523 -1.13946,-2.55469 -2.554687,-2.55469 z m -2.554688,6.27434 v 7.95417 c 0,1.41523 1.13946,2.55469 2.554688,2.55469 H 27.72895 c 1.415227,0 2.554687,-1.13946 2.554687,-2.55469 v -7.95417 h -4.154296 v 0.62605 c 0,0 0.08991,0.98633 -0.84375,0.98633 H 23.54145 c -0.468081,0 -0.84375,-0.43954 -0.84375,-0.98633 v -0.62605 h -9.050781 v 0.62605 c 0,0.2026 -0.124957,0.98633 -0.84375,0.98633 h -1.744141 c -0.468081,0 -0.84375,-0.43954 -0.84375,-0.98633 v -0.62605 z"
       id="path2"
       inkscape:connector-curvature="0"
       sodipodi:nodetypes="ssccssssccsssssccssssccssscccssscsssscccsssccsssscc" />
  </g>
</svg>
