<?xml version="1.0" encoding="UTF-8" standalone="no"?>
<!-- Generator: Adobe Illustrator 19.0.0, SVG Export Plug-In . SVG Version: 6.00 Build 0)  -->

<svg
   xmlns:dc="http://purl.org/dc/elements/1.1/"
   xmlns:cc="http://creativecommons.org/ns#"
   xmlns:rdf="http://www.w3.org/1999/02/22-rdf-syntax-ns#"
   xmlns:svg="http://www.w3.org/2000/svg"
   xmlns="http://www.w3.org/2000/svg"
   xmlns:sodipodi="http://sodipodi.sourceforge.net/DTD/sodipodi-0.dtd"
   xmlns:inkscape="http://www.inkscape.org/namespaces/inkscape"
   version="1.1"
   id="Capa_1"
   x="0px"
   y="0px"
   viewBox="0 0 512.002 512.002"
   style="enable-background:new 0 0 512.002 512.002;"
   xml:space="preserve"
   sodipodi:docname="icon.svg"
   inkscape:version="0.92.3 (2405546, 2018-03-11)"
   inkscape:export-filename="E:\Wamp\www\TP_WEB\TP02\images\icon.png"
   inkscape:export-xdpi="23"
   inkscape:export-ydpi="23"><metadata
   id="metadata57"><rdf:RDF><cc:Work
       rdf:about=""><dc:format>image/svg+xml</dc:format><dc:type
         rdf:resource="http://purl.org/dc/dcmitype/StillImage" /></cc:Work></rdf:RDF></metadata><defs
   id="defs55" /><sodipodi:namedview
   pagecolor="#ffffff"
   bordercolor="#666666"
   borderopacity="1"
   objecttolerance="10"
   gridtolerance="10"
   guidetolerance="10"
   inkscape:pageopacity="0"
   inkscape:pageshadow="2"
   inkscape:window-width="1920"
   inkscape:window-height="1017"
   id="namedview53"
   showgrid="false"
   inkscape:zoom="0.16"
   inkscape:cx="-1237.2221"
   inkscape:cy="515.03629"
   inkscape:window-x="-8"
   inkscape:window-y="-8"
   inkscape:window-maximized="1"
   inkscape:current-layer="Capa_1" />
<g
   id="g20">
	<g
   id="g18">
		<g
   id="g16">
			
			<path
   d="M432.429,0.002C432.357,0.001,432.285,0,432.214,0h-282.88c-2.835-0.016-5.56,1.097-7.573,3.093L56.427,88.427     c-1.997,2.013-3.11,4.738-3.093,7.573v389.547c0.058,14.586,11.868,26.395,26.453,26.453h352     c14.668,0.177,26.701-11.57,26.878-26.238c0.001-0.072,0.001-0.144,0.002-0.215V26.88     C458.844,12.213,447.097,0.179,432.429,0.002z M437.334,485.547c0,2.828-2.292,5.12-5.12,5.12h-352     c-2.818,0.236-5.293-1.858-5.529-4.675c-0.012-0.148-0.018-0.296-0.018-0.445V100.374l64-64v44.16     c-0.057,2.627-2.173,4.743-4.8,4.8h-27.2v21.333h32c12.352-2.351,21.299-13.133,21.333-25.707V21.333h272.213     c2.828,0,5.12,2.292,5.12,5.12V485.547z"
   id="path4" />
			<rect
   x="192"
   y="198.32698"
   width="170.66701"
   height="21.333"
   id="rect6" />
			<rect
   x="149.33299"
   y="265.65997"
   width="213.33299"
   height="21.333"
   id="rect8" />
			<rect
   x="149.33299"
   y="330.11896"
   width="213.33299"
   height="21.333"
   id="rect10" />
			<rect
   x="149.33299"
   y="391.26447"
   width="170.66701"
   height="21.333"
   id="rect12" />
			
		</g>
	</g>
</g>
<g
   id="g22">
</g>
<g
   id="g24">
</g>
<g
   id="g26">
</g>
<g
   id="g28">
</g>
<g
   id="g30">
</g>
<g
   id="g32">
</g>
<g
   id="g34">
</g>
<g
   id="g36">
</g>
<g
   id="g38">
</g>
<g
   id="g40">
</g>
<g
   id="g42">
</g>
<g
   id="g44">
</g>
<g
   id="g46">
</g>
<g
   id="g48">
</g>
<g
   id="g50">
</g>
</svg>