<?xml version="1.0" encoding="UTF-8" standalone="no"?>
<svg
   width="190"
   height="118"
   viewBox="0 0 50.270832 31.220834"
   version="1.1"
   id="svg8"
   inkscape:version="1.1.1 (3bf5ae0d25, 2021-09-20)"
   sodipodi:docname="locations.svg"
   inkscape:export-filename="E:\Users\Bastien\Downloads\image.png"
   inkscape:export-xdpi="96"
   inkscape:export-ydpi="96"
   xmlns:inkscape="http://www.inkscape.org/namespaces/inkscape"
   xmlns:sodipodi="http://sodipodi.sourceforge.net/DTD/sodipodi-0.dtd"
   xmlns="http://www.w3.org/2000/svg"
   xmlns:svg="http://www.w3.org/2000/svg"
   xmlns:rdf="http://www.w3.org/1999/02/22-rdf-syntax-ns#"
   xmlns:cc="http://creativecommons.org/ns#"
   xmlns:dc="http://purl.org/dc/elements/1.1/">
  <defs
     id="defs2">
    <filter
       style="color-interpolation-filters:sRGB;"
       inkscape:label="Drop Shadow"
       id="filter1208">
      <feFlood
         flood-opacity="0.635294"
         flood-color="rgb(0,0,0)"
         result="flood"
         id="feFlood1198" />
      <feComposite
         in="flood"
         in2="SourceGraphic"
         operator="in"
         result="composite1"
         id="feComposite1200" />
      <feGaussianBlur
         in="composite1"
         stdDeviation="0.1"
         result="blur"
         id="feGaussianBlur1202" />
      <feOffset
         dx="0.3"
         dy="0.3"
         result="offset"
         id="feOffset1204" />
      <feComposite
         in="SourceGraphic"
         in2="offset"
         operator="over"
         result="composite2"
         id="feComposite1206" />
    </filter>
  </defs>
  <sodipodi:namedview
     id="base"
     pagecolor="#ffffff"
     bordercolor="#666666"
     borderopacity="1.0"
     inkscape:pageopacity="0.0"
     inkscape:pageshadow="2"
     inkscape:zoom="1"
     inkscape:cx="-458.5"
     inkscape:cy="104.5"
     inkscape:document-units="px"
     inkscape:current-layer="layer1"
     showgrid="false"
     units="px"
     inkscape:window-width="2560"
     inkscape:window-height="1369"
     inkscape:window-x="2552"
     inkscape:window-y="-8"
     inkscape:window-maximized="1"
     fit-margin-top="0"
     fit-margin-left="0"
     fit-margin-right="0"
     fit-margin-bottom="0"
     objecttolerance="1"
     gridtolerance="1"
     guidetolerance="1"
     inkscape:document-rotation="0"
     showguides="true"
     inkscape:pagecheckerboard="0" />
  <metadata
     id="metadata5">
    <rdf:RDF>
      <cc:Work
         rdf:about="">
        <dc:format>image/svg+xml</dc:format>
        <dc:type
           rdf:resource="http://purl.org/dc/dcmitype/StillImage" />
      </cc:Work>
    </rdf:RDF>
  </metadata>
  <g
     inkscape:groupmode="layer"
     id="layer2"
     inkscape:label="background"
     style="display:inline">
    <rect
       style="fill:#8a4de0;fill-opacity:1;stroke:none;stroke-width:0.262049"
       id="rect2402"
       width="50.270832"
       height="31.220833"
       x="-6.9388939e-18"
       y="0"
       rx="0"
       ry="0" />
  </g>
  <g
     inkscape:label="Calque 1"
     inkscape:groupmode="layer"
     id="layer1"
     transform="translate(-119.8202,-121.81637)"
     style="display:inline;opacity:1">
    <path
       id="path1469"
       style="fill:#f1e9fb;fill-opacity:1;stroke:none;stroke-width:0.324064;stroke-linecap:round;stroke-linejoin:round;stroke-dashoffset:21;paint-order:stroke markers fill"
       d="m 137.76666,124.92591 -3.17655,0.0646 0.62064,1.81488 2.0221,1.26245 0.88625,-0.82889 0.0992,1.48467 1.77612,1.05213 0.85524,-0.87282 0.13798,1.48518 2.07274,1.24696 0.88367,-0.94413 0.18293,1.60662 1.29191,0.7276 a 4.7624997,4.7624997 0 0 0 -0.22376,1.42369 4.7624997,4.7624997 0 0 0 4.7625,4.7625 4.7624997,4.7624997 0 0 0 4.7625,-4.7625 4.7624997,4.7624997 0 0 0 -4.7625,-4.7625 4.7624997,4.7624997 0 0 0 -2.70423,0.85266 z m 13.29997,8.10184 a 1.9516462,1.9516462 0 0 1 1.9513,1.95181 1.9516462,1.9516462 0 0 1 -1.9513,1.95131 1.9516462,1.9516462 0 0 1 -1.95182,-1.95131 1.9516462,1.9516462 0 0 1 1.95182,-1.95181 z" />
    <path
       style="fill:#000000;stroke-width:0.0611932"
       id="path1825"
       d="" />
    <path
       style="fill:#000000;stroke-width:0.0611932"
       id="path1706"
       d="" />
    <path
       id="rect147019"
       style="fill:#621ac8;fill-opacity:1;stroke:none;stroke-width:0.331429;stroke-linecap:round;stroke-linejoin:round;stroke-dashoffset:21;paint-order:stroke markers fill"
       d="m 135.41553,138.80263 c -0.77944,0 -1.40682,0.57032 -1.40682,1.27884 v 7.72455 c 0,0.70851 0.62738,1.27883 1.40682,1.27883 h 16.29657 c 0.77943,0 1.40682,-0.57032 1.40682,-1.27883 l -1e-5,-7.72455 v -0.40739 c -0.87883,0.79252 -2.10193,1.24489 -3.31139,1.24513 -1.66286,8e-5 -3.54339,-0.83885 -4.41416,-2.11658 z"
       sodipodi:nodetypes="ssssssccccs" />
    <path
       id="circle27279"
       style="fill:#b892ff;fill-opacity:1;stroke:none;stroke-width:0.404337;stroke-linecap:round;stroke-linejoin:round;stroke-dashoffset:21;paint-order:stroke markers fill"
       d="m 155.51046,134.63708 c 0.0133,0.13572 0.0201,0.27193 0.0215,0.40824 -9e-5,0.27629 -0.0238,0.55203 -0.071,0.82424 -0.0277,-0.008 -0.0556,-0.0133 -0.0833,-0.0191 2.24932,0.49508 3.85143,2.48818 3.85143,4.79135 0,2.70949 -2.19648,4.90597 -4.90597,4.90597 -0.0733,-0.004 -0.14655,-0.009 -0.21965,-0.0153 l -1.7e-4,1.21455 c 0.0812,0.007 0.13868,0.0122 0.22005,0.0159 3.38064,0 6.12121,-2.74056 6.12121,-6.12122 -6e-5,-2.9228 -2.06646,-5.43782 -4.93376,-6.00481 z"
       sodipodi:nodetypes="cccccccccccc" />
    <path
       id="path130756"
       style="fill:#f1e9fb;fill-opacity:1;stroke-width:0.116466;stroke-linecap:round;stroke-linejoin:round;stroke-dashoffset:21;paint-order:stroke markers fill"
       d="m 139.25221,141.40316 -2.59491,2.53692 v 3.39538 h 1.80873 v -2.26866 h 1.64464 v 2.26866 h 1.68964 v -3.39538 z" />
    <path
       id="path130758"
       style="fill:#f1e9fb;fill-opacity:1;stroke-width:0.116466;stroke-linecap:round;stroke-linejoin:round;stroke-dashoffset:21;paint-order:stroke markers fill"
       d="m 139.25221,140.35056 -2.59491,2.53691 -0.61583,0.66576 h 0.52559 l 2.68515,-2.68801 2.67292,2.68801 h 0.49101 l -0.61583,-0.66576 -0.49243,-0.49022 v -1.62993 h -1.09448 v 0.54027 z"
       sodipodi:nodetypes="ccccccccccccc" />
    <path
       id="path2116"
       style="fill:#b892ff;fill-opacity:1;stroke:none;stroke-width:0.404336;stroke-linecap:round;stroke-linejoin:round;stroke-dashoffset:21;paint-order:stroke markers fill"
       d="m 152.03002,134.40652 c -2.8704,0.55489 -4.95329,3.06491 -4.95886,5.99654 0.004,0.0834 0.0107,0.16651 0.0181,0.24959 0.0471,0.22461 0.33954,0.37008 0.62735,0.37828 0.26747,0.008 0.60579,-0.14362 0.58963,-0.37828 -0.009,-0.0831 -0.0151,-0.16622 -0.0196,-0.24959 5.3e-4,-2.37082 1.69623,-4.39245 4.01733,-4.81986 a 1.9516461,1.9516461 0 0 0 0.0134,-0.15917 1.9516461,1.9516461 0 0 0 -0.28733,-1.01751 z" />
  </g>
</svg>
