<?xml version="1.0" encoding="utf-8"?>
<!-- Svg Vector Icons : http://www.onlinewebfonts.com/icon -->
<!DOCTYPE svg PUBLIC "-//W3C//DTD SVG 1.1//EN" "http://www.w3.org/Graphics/SVG/1.1/DTD/svg11.dtd">
<svg version="1.1" xmlns="http://www.w3.org/2000/svg" xmlns:xlink="http://www.w3.org/1999/xlink" x="0px" y="0px" viewBox="0 0 256 256" enable-background="new 0 0 256 256" xml:space="preserve">
<metadata> Svg Vector Icons : http://www.onlinewebfonts.com/icon </metadata>
<g><g><path fill="#000000" d="M127.9,103c25.6,0,46.5-20.9,46.5-46.5S153.5,10,127.9,10c-25.6,0-46.5,20.9-46.5,46.5C81.4,82.1,102.2,103,127.9,103z M127.9,94.9c-21.2,0-38.4-17.2-38.4-38.4c0-21.2,17.2-38.4,38.4-38.4c21.2,0,38.4,17.2,38.4,38.4C166.3,77.7,149,94.9,127.9,94.9z"/><path fill="#000000" d="M217.6,241.8c0-0.3-1.5-32.9-12.9-65c-6.8-19.1-15.7-34.3-26.6-45.3c-13.1-13.3-29-20.4-47.3-21.1v0h-2.7H128h-0.1h-2.7v0c-18.3,0.7-34.1,7.8-47.3,21.1c-10.9,11-19.8,26.3-26.6,45.3c-11.5,32.2-12.9,64.7-12.9,65l-0.2,4.2h179.6L217.6,241.8z M209.3,237.9H46.7c0.8-9.3,3.5-34.2,12.2-58.5c14.4-40.5,37.7-61,69.1-61c31.4,0,54.7,20.6,69.1,61.1C205.7,203.8,208.5,228.7,209.3,237.9z"/></g></g>
</svg>