<?xml version="1.0" encoding="UTF-8" standalone="no"?>
<svg
   xmlns:dc="http://purl.org/dc/elements/1.1/"
   xmlns:cc="http://creativecommons.org/ns#"
   xmlns:rdf="http://www.w3.org/1999/02/22-rdf-syntax-ns#"
   xmlns:svg="http://www.w3.org/2000/svg"
   xmlns="http://www.w3.org/2000/svg"
   xmlns:sodipodi="http://sodipodi.sourceforge.net/DTD/sodipodi-0.dtd"
   xmlns:inkscape="http://www.inkscape.org/namespaces/inkscape"
   version="1.1"
   viewBox="0 -256 32.000001 32.000001"
   id="svg6"
   sodipodi:docname="misc.svg"
   inkscape:version="0.92.3 (2405546, 2018-03-11)"
   width="32"
   height="32">
  <metadata
     id="metadata12">
    <rdf:RDF>
      <cc:Work
         rdf:about="">
        <dc:format>image/svg+xml</dc:format>
        <dc:type
           rdf:resource="http://purl.org/dc/dcmitype/StillImage" />
        <dc:title />
      </cc:Work>
    </rdf:RDF>
  </metadata>
  <defs
     id="defs10" />
  <sodipodi:namedview
     pagecolor="#ffffff"
     bordercolor="#666666"
     borderopacity="1"
     objecttolerance="10"
     gridtolerance="10"
     guidetolerance="10"
     inkscape:pageopacity="0"
     inkscape:pageshadow="2"
     inkscape:window-width="1920"
     inkscape:window-height="1017"
     id="namedview8"
     showgrid="false"
     inkscape:zoom="2.0879762"
     inkscape:cx="-93.58565"
     inkscape:cy="54.572582"
     inkscape:window-x="-8"
     inkscape:window-y="-8"
     inkscape:window-maximized="1"
     inkscape:current-layer="layer2"
     fit-margin-top="0"
     fit-margin-left="0"
     fit-margin-right="0"
     fit-margin-bottom="0" />
  <g
     inkscape:groupmode="layer"
     id="layer1"
     inkscape:label="Background"
     transform="translate(-2.1723094,20.664459)"
     style="display:none">
    <rect
       style="color:#000000;clip-rule:nonzero;display:inline;overflow:visible;visibility:visible;opacity:1;isolation:auto;mix-blend-mode:normal;color-interpolation:sRGB;color-interpolation-filters:linearRGB;solid-color:#000000;solid-opacity:1;fill:#800080;fill-opacity:1;fill-rule:nonzero;stroke:none;stroke-width:9.82172871;stroke-linecap:butt;stroke-linejoin:round;stroke-miterlimit:4;stroke-dasharray:none;stroke-dashoffset:0;stroke-opacity:1;paint-order:normal;color-rendering:auto;image-rendering:auto;shape-rendering:auto;text-rendering:auto;enable-background:accumulate"
       id="rect846"
       width="32"
       height="32"
       x="2.1723094"
       y="-276.66446" />
  </g>
  <g
     inkscape:groupmode="layer"
     id="layer2"
     inkscape:label="Icon"
     transform="translate(-2.1723094,20.664459)">
    <path
       style="stroke-width:0.99999988;fill:#ffffff"
       d="m 19.740805,2.0238406 c -0.485554,0 -0.969557,0.1838716 -1.339196,0.5535096 l -0.91199,0.9119908 c -0.739276,0.7392767 -0.739277,1.9409736 0,2.6802496 l 0.0873,0.087299 -4.41879,4.4169319 c -2.404879,-0.413674 -4.8863239,0.150578 -6.8668627,1.573231 -0.4535447,0.325707 -0.7384946,0.831099 -0.7838291,1.387489 -0.045234,0.555639 0.1538034,1.101192 0.5479374,1.495219 l 3.152033,3.152033 3.7779824,3.776125 3.152033,3.15389 c 0.357416,0.357413 0.838164,0.555367 1.339196,0.555367 0.05145,0 0.104376,-0.0027 0.156022,-0.0074 0.556286,-0.04536 1.061733,-0.330338 1.38749,-0.78383 1.422699,-1.98064 1.987001,-4.463945 1.57323,-6.86872 l 4.416933,-4.416932 0.0873,0.0873 c 0.739277,0.739276 1.940974,0.739276 2.68025,0 l 0.91199,-0.911991 c 0.739377,-0.739171 0.739277,-1.940973 0,-2.680249 L 21.081859,2.5773502 C 20.712221,2.2077122 20.226359,2.0238406 19.740805,2.0238406 Z M 7.1132812,19.546875 c -0.350073,0.009 -0.670115,0.199806 -0.84375,0.503906 l -4.8574218,8.478516 c -0.51916402,0.89925 0.506525,1.896132 1.390625,1.351562 l 8.3124996,-5.083984 c 0.554617,-0.34005 0.642066,-1.110746 0.177735,-1.566406 L 7.8378906,19.833984 C 7.6451209,19.644224 7.3837063,19.540645 7.1132812,19.546875 Z"
       transform="translate(2.1723094,-276.66446)"
       id="path2"
       inkscape:connector-curvature="0"
       sodipodi:nodetypes="scscccccccccscccccscssscccccccc" />
  </g>
</svg>
