<?xml version="1.0" encoding="UTF-8" standalone="no"?>
<svg
   xmlns:dc="http://purl.org/dc/elements/1.1/"
   xmlns:cc="http://creativecommons.org/ns#"
   xmlns:rdf="http://www.w3.org/1999/02/22-rdf-syntax-ns#"
   xmlns:svg="http://www.w3.org/2000/svg"
   xmlns="http://www.w3.org/2000/svg"
   xmlns:sodipodi="http://sodipodi.sourceforge.net/DTD/sodipodi-0.dtd"
   xmlns:inkscape="http://www.inkscape.org/namespaces/inkscape"
   inkscape:export-ydpi="96"
   inkscape:export-xdpi="96"
   inkscape:export-filename="C:\Users\Bastien\Google Drive\BTS SIO\Cours\Java\DS\DS 01\Enoncé\icone.png"
   inkscape:version="1.0 (4035a4fb49, 2020-05-01)"
   sodipodi:docname="tests_unitaires.svg"
   xml:space="preserve"
   enable-background="new 0 0 455 512"
   viewBox="0 0 190 118"
   height="118"
   width="190"
   y="0px"
   x="0px"
   id="Calque_1"
   version="1.1"><metadata
   id="metadata77"><rdf:RDF><cc:Work
       rdf:about=""><dc:format>image/svg+xml</dc:format><dc:type
         rdf:resource="http://purl.org/dc/dcmitype/StillImage" /><dc:title /></cc:Work></rdf:RDF></metadata><defs
   id="defs75">
	
	
	
	

		
		
	
		
			
		
			
		
			
		
			
		
			
		
			
		
			
		
			
	
		
		
		
		
	<filter
   id="filter1059"
   inkscape:label="Lightness-Contrast"
   style="color-interpolation-filters:sRGB"><feColorMatrix
     id="feColorMatrix1057"
     values="1.573 0 0 0.12731 -0.2865 0 1.573 0 0.12731 -0.2865 0 0 1.573 0.12731 -0.2865 0 0 0 1 0" /></filter><filter
   id="filter1059-6"
   inkscape:label="Lightness-Contrast"
   style="color-interpolation-filters:sRGB"><feColorMatrix
     id="feColorMatrix1057-5"
     values="1.573 0 0 0.12731 -0.2865 0 1.573 0 0.12731 -0.2865 0 0 1.573 0.12731 -0.2865 0 0 0 1 0" /></filter></defs><sodipodi:namedview
   inkscape:document-rotation="0"
   fit-margin-bottom="0"
   fit-margin-right="0"
   fit-margin-left="0"
   fit-margin-top="0"
   inkscape:current-layer="layer2"
   inkscape:window-maximized="1"
   inkscape:window-y="-8"
   inkscape:window-x="-8"
   inkscape:cy="45.584387"
   inkscape:cx="49.530846"
   inkscape:zoom="4"
   showgrid="false"
   id="namedview73"
   inkscape:window-height="1017"
   inkscape:window-width="1920"
   inkscape:pageshadow="2"
   inkscape:pageopacity="0"
   guidetolerance="1"
   gridtolerance="1"
   objecttolerance="1"
   borderopacity="1"
   bordercolor="#666666"
   pagecolor="#ffffff" />


<g
   transform="translate(508.95681,-184.51568)"
   id="g42">
</g>
<g
   transform="translate(508.95681,-184.51568)"
   id="g44">
</g>
<g
   transform="translate(508.95681,-184.51568)"
   id="g46">
</g>
<g
   transform="translate(508.95681,-184.51568)"
   id="g48">
</g>
<g
   transform="translate(508.95681,-184.51568)"
   id="g50">
</g>
<g
   transform="translate(508.95681,-184.51568)"
   id="g52">
</g>
<g
   transform="translate(508.95681,-184.51568)"
   id="g54">
</g>
<g
   transform="translate(508.95681,-184.51568)"
   id="g56">
</g>
<g
   transform="translate(508.95681,-184.51568)"
   id="g58">
</g>
<g
   transform="translate(508.95681,-184.51568)"
   id="g60">
</g>
<g
   transform="translate(508.95681,-184.51568)"
   id="g62">
</g>
<g
   transform="translate(508.95681,-184.51568)"
   id="g64">
</g>
<g
   transform="translate(508.95681,-184.51568)"
   id="g66">
</g>
<g
   transform="translate(508.95681,-184.51568)"
   id="g68">
</g>
<g
   transform="translate(508.95681,-184.51568)"
   id="g70">
</g>
<g
   style="display:inline"
   transform="translate(539.771,-122.76522)"
   inkscape:label="Background"
   id="layer1"
   inkscape:groupmode="layer" /><g
   transform="translate(539.771,-122.76522)"
   style="display:inline"
   inkscape:label="Calque"
   id="layer2"
   inkscape:groupmode="layer"><g
     transform="translate(0.5,7.77818)"
     id="g885"><rect
       style="display:inline;fill:#27ae69;fill-opacity:1;stroke:none;stroke-width:0.990421"
       id="rect2402"
       width="190"
       height="118"
       x="-540.271"
       y="114.98705"
       rx="0"
       ry="0" /><path
       id="rect937"
       style="display:inline;fill:#e15b53;fill-opacity:1;stroke:none;stroke-width:1.15223"
       d="m -540.271,114.98704 h 73.28547 l 44.44873,42.7139 -28.15727,26.98515 50.3793,48.30095 H -540.271 Z"
       sodipodi:nodetypes="cccsccc" /></g><g
     transform="translate(0.5,7.77818)"
     id="g881"><path
       id="circle890"
       style="fill:#ffffff;fill-opacity:1;stroke-width:0.759802"
       d="m -441.41494,137.86867 c -0.60339,0.0113 -1.13293,0.44366 -1.24677,1.06127 l -0.51828,2.80834 a 32.310508,32.310508 0 0 0 -9.06919,0.72176 l -0.9556,-2.68917 c -0.24025,-0.67634 -0.9774,-1.02946 -1.65374,-0.78921 l -4.88142,1.73469 c -0.67634,0.24026 -1.0261,0.97853 -0.78584,1.65487 l 0.9556,2.69029 a 32.310508,32.310508 0 0 0 -7.49302,5.16135 l -2.17314,-1.8516 c -0.54624,-0.4656 -1.36128,-0.40234 -1.82688,0.1439 l -3.36033,3.94156 c -0.46561,0.54624 -0.39897,1.36127 0.14727,1.82688 l 2.17202,1.85161 a 32.310508,32.310508 0 0 0 -3.90783,8.2159 l -2.80834,-0.51715 c -0.70583,-0.13025 -1.37974,0.33294 -1.50984,1.03879 l -0.93874,5.09503 c -0.13025,0.70583 0.33406,1.37862 1.03992,1.50871 l 2.80833,0.51715 a 32.310508,32.310508 0 0 0 0.72176,9.06919 l -2.69029,0.9556 c -0.67635,0.24026 -1.02834,0.97853 -0.78809,1.65487 l 1.73469,4.8803 c 0.24026,0.67634 0.97854,1.02722 1.65488,0.78696 l 2.69029,-0.95672 a 32.310508,32.310508 0 0 0 5.16135,7.49414 l -1.85274,2.17202 c -0.4656,0.54624 -0.4012,1.36128 0.14503,1.82688 l 3.94156,3.36145 c 0.54625,0.4656 1.36128,0.39898 1.82688,-0.14727 l 1.85161,-2.17202 a 32.310508,32.310508 0 0 0 8.2159,3.90784 l -0.51715,2.80833 c -0.13025,0.70582 0.33294,1.37862 1.0388,1.50872 l 5.0939,0.93986 c 0.70583,0.13025 1.37862,-0.33406 1.50872,-1.03992 l 0.51827,-2.80833 a 32.310508,32.310508 0 0 0 9.06919,-0.72289 l 0.9556,2.69029 c 0.24025,0.67635 0.97741,1.02834 1.65374,0.78809 l 4.88142,-1.73357 c 0.67634,-0.24025 1.02611,-0.97965 0.78584,-1.65599 l -0.9556,-2.69029 a 32.310508,32.310508 0 0 0 7.49414,-5.16023 l 2.17202,1.85161 c 0.54625,0.46559 1.36128,0.40233 1.82688,-0.1439 l 3.36033,-3.94269 c 0.46561,-0.54624 0.40011,-1.36015 -0.14615,-1.82575 l -2.17314,-1.85274 a 32.310508,32.310508 0 0 0 3.90783,-8.21589 l 2.80834,0.51827 c 0.70582,0.13024 1.37974,-0.33293 1.50984,-1.0388 l 0.93873,-5.09502 c 0.13025,-0.70583 -0.33406,-1.37862 -1.03991,-1.50872 l -2.80833,-0.51715 a 32.310508,32.310508 0 0 0 -0.0989,-5.20969 l -4.63296,5.07703 a 27.57816,27.57816 0 0 1 -0.39461,3.13886 27.57816,27.57816 0 0 1 -32.12047,22.12266 27.57816,27.57816 0 0 1 -22.12153,-32.12046 27.57816,27.57816 0 0 1 32.02041,-22.14065 27.57816,27.57816 0 0 1 0.0989,0.018 27.57816,27.57816 0 0 1 12.41153,5.73471 l 5.83928,-6.39913 -1.72009,-1.466 c -0.54624,-0.4656 -1.36127,-0.39898 -1.82687,0.14727 l -1.85161,2.17202 a 32.310508,32.310508 0 0 0 -8.2159,-3.90784 l 0.51715,-2.80833 c 0.13025,-0.70582 -0.33293,-1.37974 -1.0388,-1.50985 L -441.153,137.89 c -0.0882,-0.0163 -0.17574,-0.023 -0.26194,-0.0214 z" /><path
       id="rect926"
       style="fill:#ffffff;fill-opacity:1;stroke-width:0.471657"
       d="m -414.66156,150.91652 c -0.4104,-0.007 -0.82387,0.13725 -1.14447,0.43395 l -29.74496,27.52685 -12.81401,-12.15521 c -0.93461,-0.88652 -2.40074,-0.84804 -3.28726,0.0866 l -2.07758,2.19113 c -0.88653,0.93461 -0.84805,2.40073 0.0866,3.28725 l 16.80167,16.09228 c 0.6182,0.61734 1.63085,0.63501 2.27207,0.0416 l 34.1958,-31.64604 c 0.64123,-0.5934 0.65756,-1.57042 0.0394,-2.18776 l -3.20069,-3.19619 c -0.3091,-0.30867 -0.71608,-0.46717 -1.12648,-0.47443 z"
       sodipodi:nodetypes="sccccccccccsss" /></g></g></svg>
