<?xml version="1.0" encoding="UTF-8" standalone="no"?>
<svg
   xmlns:dc="http://purl.org/dc/elements/1.1/"
   xmlns:cc="http://creativecommons.org/ns#"
   xmlns:rdf="http://www.w3.org/1999/02/22-rdf-syntax-ns#"
   xmlns:svg="http://www.w3.org/2000/svg"
   xmlns="http://www.w3.org/2000/svg"
   xmlns:sodipodi="http://sodipodi.sourceforge.net/DTD/sodipodi-0.dtd"
   xmlns:inkscape="http://www.inkscape.org/namespaces/inkscape"
   version="1.1"
   viewBox="0 -256 32.000001 32.000001"
   id="svg6"
   sodipodi:docname="voiture.svg"
   inkscape:version="0.92.3 (2405546, 2018-03-11)"
   width="32"
   height="32">
  <metadata
     id="metadata12">
    <rdf:RDF>
      <cc:Work
         rdf:about="">
        <dc:format>image/svg+xml</dc:format>
        <dc:type
           rdf:resource="http://purl.org/dc/dcmitype/StillImage" />
        <dc:title />
      </cc:Work>
    </rdf:RDF>
  </metadata>
  <defs
     id="defs10" />
  <sodipodi:namedview
     pagecolor="#ffffff"
     bordercolor="#666666"
     borderopacity="1"
     objecttolerance="10"
     gridtolerance="10"
     guidetolerance="10"
     inkscape:pageopacity="0"
     inkscape:pageshadow="2"
     inkscape:window-width="1920"
     inkscape:window-height="1017"
     id="namedview8"
     showgrid="false"
     inkscape:zoom="6.4947303"
     inkscape:cx="40.785824"
     inkscape:cy="16.271544"
     inkscape:window-x="-8"
     inkscape:window-y="-8"
     inkscape:window-maximized="1"
     inkscape:current-layer="layer2"
     fit-margin-top="0"
     fit-margin-left="0"
     fit-margin-right="0"
     fit-margin-bottom="0" />
  <g
     inkscape:groupmode="layer"
     id="layer1"
     inkscape:label="Background"
     transform="translate(-2.1723094,20.664459)"
     style="display:none">
    <rect
       style="color:#000000;clip-rule:nonzero;display:inline;overflow:visible;visibility:visible;opacity:1;isolation:auto;mix-blend-mode:normal;color-interpolation:sRGB;color-interpolation-filters:linearRGB;solid-color:#000000;solid-opacity:1;fill:#800080;fill-opacity:1;fill-rule:nonzero;stroke:none;stroke-width:9.82172871;stroke-linecap:butt;stroke-linejoin:round;stroke-miterlimit:4;stroke-dasharray:none;stroke-dashoffset:0;stroke-opacity:1;paint-order:normal;color-rendering:auto;image-rendering:auto;shape-rendering:auto;text-rendering:auto;enable-background:accumulate"
       id="rect846"
       width="32"
       height="32"
       x="2.1723094"
       y="-276.66446" />
  </g>
  <g
     inkscape:groupmode="layer"
     id="layer2"
     inkscape:label="Icon"
     transform="translate(-2.1723094,20.664459)">
    <path
       inkscape:connector-curvature="0"
       d="m 31.15949,-266.36604 c -0.123156,0 -0.249543,0.0177 -0.375929,0.0524 l -1.428447,0.39349 -1.483073,-3.61325 c -0.420306,-1.02359 -1.662403,-1.85647 -2.768844,-1.85647 H 11.221762 c -1.106583,0 -2.3485393,0.83288 -2.7687039,1.85647 l -1.4812476,3.60819 -1.4107526,-0.38857 c -0.1262463,-0.0347 -0.2526322,-0.0524 -0.3757886,-0.0524 -0.6751842,0 -1.1651415,0.5158 -1.1651415,1.22623 v 0.84201 c 0,0.82938 0.6749026,1.50428 1.5042781,1.50428 h 0.1616339 l -0.2394315,0.58321 c -0.3903933,0.9507 -0.7081852,2.56086 -0.7081852,3.58908 v 7.17805 c 0,0.82937 0.6749033,1.50427 1.5042781,1.50427 h 1.964606 c 0.8293748,0 1.5042781,-0.6749 1.5042781,-1.50427 v -1.79244 H 26.613232 v 1.79244 c 0,0.82937 0.674904,1.50427 1.504279,1.50427 h 1.964325 c 0.829375,0 1.504278,-0.6749 1.504278,-1.50427 v -7.17791 c 0,-1.02808 -0.317791,-2.63824 -0.708185,-3.58909 l -0.239432,-0.5832 h 0.181716 c 0.829375,0 1.504278,-0.6749 1.504278,-1.50428 v -0.84201 c 1.4e-4,-0.71044 -0.489957,-1.22623 -1.165001,-1.22623 z m -23.1093235,2.7555 2.2437795,-5.46523 c 0.251368,-0.61227 0.998452,-1.11332 1.660295,-1.11332 h 12.416477 c 0.661843,0 1.408927,0.50091 1.660295,1.11332 l 2.243779,5.46523 c 0.251228,0.61227 -0.08454,1.11333 -0.746382,1.11333 H 8.7966886 c -0.6619836,-1.4e-4 -0.9977502,-0.50106 -0.7465221,-1.11333 z m 5.0086915,6.91292 c 0,0.33099 -0.270888,0.60159 -0.601599,0.60159 H 8.1949494 c -0.3309918,0 -0.6017392,-0.27074 -0.6017392,-0.60159 v -2.0455 c 0,-0.33085 0.2707474,-0.6016 0.6017392,-0.6016 h 4.2623096 c 0.330711,0 0.601599,0.27075 0.601599,0.6016 z m 15.632447,0 c 0,0.33099 -0.270888,0.60159 -0.601599,0.60159 h -4.26231 c -0.33071,0 -0.601598,-0.27074 -0.601598,-0.60159 v -2.0455 c 0,-0.33085 0.270888,-0.6016 0.601598,-0.6016 h 4.26231 c 0.330711,0 0.601599,0.27075 0.601599,0.6016 z"
       id="path2"
       style="stroke-width:0.99999994;fill:#ffffff" />
  </g>
</svg>
